# xmcd CD database file generated by OrangeCD 6.5
#
# Track frame offsets:
#	150
#	13587
#	26675
#	41765
#	55795
#	69545
#	85107
#	96512
#	111200
#	124555
#	139290
#	153170
#	165160
#	177135
#	191437
#	204345
#	217400
#	230150
#	243525
#	256765
#
# Disc length: 3579 seconds
#
# Revision: 1
# Processed by: cddbd v1.5.2PL0 Copyright (c) Steve Scherf et al.
# Submitted via: OrangeCD 6.5
#
DISCID=140df914
DTITLE=Eddie Boyd - Third Degree
DYEAR=1995
DGENRE=Chicago Blues
TTITLE0=Picture In The Frame
TTITLE1=I Got The Blues
TTITLE2=Got Lonesome Here
TTITLE3=Blues For My Baby
TTITLE4=Cool Kind Treatment
TTITLE5=24 Hours
TTITLE6=Hard Time Getting Started
TTITLE7=Best I Could
TTITLE8=The Tickler
TTITLE9=Third Degree
TTITLE10=Rattin' And Runnin' Around
TTITLE11=Just A Fool
TTITLE12=Hush Baby Don't You Cry
TTITLE13=Nothing But Trouble
TTITLE14=I Got The Blues
TTITLE15=Driftin'
TTITLE16=Got Me Seein' Double
TTITLE17=I'm A Prisoner
TTITLE18=Treat Her Right
TTITLE19=Come On Home
EXTD=
EXTT0=
EXTT1=
EXTT2=
EXTT3=
EXTT4=
EXTT5=
EXTT6=
EXTT7=
EXTT8=
EXTT9=
EXTT10=
EXTT11=
EXTT12=
EXTT13=
EXTT14=
EXTT15=
EXTT16=
EXTT17=
EXTT18=
EXTT19=
PLAYORDER=
